<svg xmlns="http://www.w3.org/2000/svg" viewBox="0 0 64 64"><defs><linearGradient id="rim" x2="1" y2="1"><stop stop-color="#e8e8ed"/><stop offset=".4" stop-color="#595760"/><stop offset=".55" stop-color="#b997d9"/><stop offset="1" stop-color="#e5c454"/></linearGradient><path id="n" d="M13 48V24h7v3c2-3 5-4 8-4 8 0 12 5 12 13v12h-7V36c0-4-2-6-5-6s-8 2-8 7v11z"/><clipPath id="slice"><path d="M0 30h64v4H0zM0 43h64v3H0z"/></clipPath></defs><path d="M4 16C5 3 22 7 33 3S58 9 59 23 65 42 58 52 38 61 23 59 1 52 4 38 3 26 4 16Z" fill="#111114" stroke="url(#rim)" stroke-width="2"/><use href="#n" fill="#fff"/><use href="#n" fill="#c09aeb" transform="translate(-3)" clip-path="url(#slice)"/><circle cx="51" cy="44" r="5" fill="#e5c454"/><path d="M47 43h13" stroke="#e5c454" stroke-width="2"/></svg>
